# xmcd
#
# Track frame offsets: 
#        150
#        20119
#        35664
#        57444
#        86420
#        106974
#        118263
#        146619
#        164568
#        179876
#
# Disc length: 2698 seconds
#
# Revision: 0
# Processed by: cddbd v1.5.2PL0 Copyright (c) Steve Scherf et al.
# Submitted via: ExactAudioCopy v1.3
#
DISCID=960a880a
DTITLE=Jeff Fetterman - 9 Miles To Nowhere
DYEAR=2017
DGENRE=Blues Rock
TTITLE0=Somebody Get Me a Doctor
TTITLE1=Something Just Ain't Right
TTITLE2=Devil Knockin' at My Door
TTITLE3=Brand New Day
TTITLE4=Lover Man
TTITLE5=Goodbye John Brown
TTITLE6=Broken Hearted
TTITLE7=Early Grave
TTITLE8=Bad Feeling
TTITLE9=These Arms of Mine
EXTD=
EXTT0=
EXTT1=
EXTT2=
EXTT3=
EXTT4=
EXTT5=
EXTT6=
EXTT7=
EXTT8=
EXTT9=
PLAYORDER=
